<svg xmlns="http://www.w3.org/2000/svg" width="162" height="74" viewBox="0 0 162 74">
  <g fill="#ffffff">
    <g transform="translate(77 14)">
      <path d="M6.53907563 7.46653506C4.67221008 7.46653506 4.1175042 8.56865455 4.1175042 10.7025455L4.1175042 11.3212623 6.40088235 11.1475065C8.26929412 11.0135377 8.61564706 10.1511013 8.61564706 9.15373506 8.61564706 8.18885195 8.06364706 7.46653506 6.53907563 7.46653506M6.95597479 13.7290494L4.1175042 13.9700779 4.1175042 14.1774701C4.1175042 15.7960519 4.56803361 16.8949039 6.47104202 16.8949039 8.47938655 16.8949039 10.934395 16.6888571 12.0076639 16.4485974L12.2494538 19.2679013C10.3474118 19.6824935 8.09611765 19.990987 6.40088235 19.990987 2.90642857 19.990987.139663866 18.6159325.139663866 13.7290494L.139663866 10.7361818C.139663866 5.84987532 2.97562185 4.44118442 6.47104202 4.44118442 9.51535294 4.44118442 12.3886134 5.74742857 12.3886134 9.05013506 12.3886134 12.4552883 10.0366218 13.454961 6.95597479 13.7290494M29.527479 19.9923325C27.7607311 19.9923325 25.6155462 19.4414649 24.1613277 18.6159325L24.750437 15.8296883C26.1343025 16.5521974 28.0031008 17.1011429 29.527479 17.1011429 30.8752017 17.1011429 31.9150336 16.7926494 31.9150336 15.5523325L31.9150336 15.4149039C31.9150336 14.1774701 30.4256387 13.5923896 29.1457563 13.2139325 26.827395 12.4916156 24.5092269 11.8363792 24.5092269 8.9128987L24.5092269 8.67244675C24.5092269 5.57521039 26.8612185 4.43868571 29.9758824 4.43868571 31.7064874 4.43868571 33.1593529 4.81752727 34.7857815 5.4028L34.1982185 8.1901974C32.8831597 7.70871688 31.0837479 7.29739221 29.8378824 7.29739221 28.6258403 7.29739221 28.1072773 7.60530909 28.1072773 8.39643636L28.1072773 8.60248312C28.1072773 9.80628052 30.4256387 10.0822909 32.1574034 10.7698182 33.8854958 11.4586909 35.4777143 12.5588883 35.4777143 14.9685974L35.4777143 15.3812675C35.4777143 18.9930442 32.8112605 19.9923325 29.527479 19.9923325M65.2677395 7.46653506C63.3987479 7.46653506 62.8450084 8.56865455 62.8450084 10.7025455L62.8450084 11.3212623 65.1293529 11.1475065C66.9967983 11.0135377 67.3435378 10.1511013 67.3435378 9.15373506 67.3435378 8.18885195 66.7923109 7.46653506 65.2677395 7.46653506M65.6819328 13.7290494L62.8450084 13.9700779 62.8450084 14.1774701C62.8450084 15.7960519 63.2945714 16.8949039 65.1971933 16.8949039 67.2055378 16.8949039 69.6605462 16.6888571 70.733042 16.4485974L70.9754118 19.2679013C69.0753025 19.6824935 66.8249748 19.990987 65.1293529 19.990987 61.6345126 19.990987 58.8679412 18.6159325 58.8679412 13.7290494L58.8679412 10.7361818C58.8679412 5.84987532 61.7037059 4.44118442 65.1971933 4.44118442 68.2428571 4.44118442 71.1161176 5.74742857 71.1161176 9.05013506 71.1161176 12.4552883 68.7625798 13.454961 65.6819328 13.7290494M78.9685882 19.9923325C77.2043529 19.9923325 75.0593613 19.4414649 73.6053361 18.6159325L74.1942521 15.8296883C75.5781176 16.5521974 77.446916 17.1011429 78.9685882 17.1011429 80.3201765 17.1011429 81.3559496 16.7926494 81.3559496 15.5523325L81.3559496 15.4149039C81.3559496 14.1774701 79.8679076 13.5923896 78.5880252 13.2139325 76.2712101 12.4916156 73.9532353 11.8363792 73.9532353 8.9128987L73.9532353 8.67244675C73.9532353 5.57521039 76.3052269 4.43868571 79.4196975 4.43868571 81.1489496 4.43868571 82.6035546 4.81752727 84.2282437 5.4028L83.6393277 8.1901974C82.3256218 7.70871688 80.5273697 7.29739221 79.2815042 7.29739221 78.0684958 7.29739221 77.5510924 7.60530909 77.5510924 8.39643636L77.5510924 8.60248312C77.5510924 9.80628052 79.8679076 10.0822909 81.5985126 10.7698182 83.3289244 11.4586909 84.9215294 12.5588883 84.9215294 14.9685974L84.9215294 15.3812675C84.9215294 18.9930442 82.2552689 19.9923325 78.9685882 19.9923325M43.0543782 4.74890909L39.0757647 4.74890909 39.0757647 17.3783065C39.0757647 18.7520156 39.4211513 19.6824935 39.4211513 19.6824935L43.4009244 19.6824935C43.4009244 19.6824935 43.0543782 18.7520156 43.0543782 17.3783065L43.0543782 4.74890909"/>
      <polygon points="14.128 10.542 21.533 10.542 21.533 12.629 14.128 12.629"/>
      <path d="M52.3641597,16.620239 C51.6341513,16.620239 51.2535882,16.4485974 51.2535882,15.7597247 L51.2535882,7.87997403 L56.0634874,7.87997403 L56.0634874,4.74890909 L51.2535882,4.74890909 L51.2535882,0.412701299 L51.2367731,0.41865974 L47.276521,2.67152727 L47.276521,15.7947065 C47.276521,18.2713039 48.1391176,19.8199221 50.9433782,19.8199221 C52.6061429,19.8199221 56.1326807,19.4414649 56.9303361,19.3042286 L56.4792269,16.3449974 C56.4792269,16.3449974 53.158916,16.620239 52.3641597,16.620239"/>
    </g>
    <path d="M32.1812689,74 L64.4552941,55.5615065 L64.4552941,43.3372831 L32.1812689,61.454213 L32.1947983,48.9122701 L21.8440252,42.9715117 L10.6936639,49.0339377 L10.6768487,61.2508571 L32.1812689,74 Z M20.8913613,18.5643896 L32.2398319,12.0256727 L43.1321681,18.5643896 L43.123084,30.8768364 L32.1812689,36.7174545 L43.123085,42.97151 L64.4978151,30.8358961 L64.4978151,18.5643896 L32.1812689,0.0843792208 L0,18 L10.6768487,24.1901195 L10.6768487,36.5777195 L21.8440252,42.9715117 L32.1812689,36.7174545 L32.1812689,24.3792519 L20.8913613,18.5643896 Z"/>
  </g>
</svg>
